<svg width="366" height="49" viewBox="0 0 366 49" fill="none" xmlns="http://www.w3.org/2000/svg">
<path d="M6.54605 48.0061L0.636965 48.0013L17.7714 1.46979L23.5896 1.47453L40.637 48.0339L34.7279 48.0291L20.8554 8.83595L20.4918 8.83565L6.54605 48.0061ZM8.74488 29.8261L32.5631 29.8455L32.5584 34.8455L8.7402 34.8261L8.74488 29.8261ZM39.9429 6.48786L39.9475 1.48786L74.8566 1.5163L74.8519 6.5163L60.2156 6.50437L60.1767 48.0498L54.5404 48.0452L54.5792 6.49978L39.9429 6.48786ZM81.0053 6.52131L81.01 1.52131L115.919 1.54975L115.914 6.54975L101.278 6.53783L101.239 48.0833L95.6028 48.0787L95.6417 6.53323L81.0053 6.52131ZM124.574 48.1023L124.618 1.55684L152.709 1.57972L152.704 6.57972L130.25 6.56143L130.235 22.2887L151.235 22.3058L151.23 27.3058L130.23 27.2887L130.215 43.1069L153.034 43.1255L153.029 48.1255L124.574 48.1023ZM199.777 1.61807L199.733 48.1635L194.279 48.1591L168.95 11.593L168.495 11.5926L168.461 48.138L162.824 48.1334L162.868 1.588L168.322 1.59244L193.743 38.2495L194.197 38.2499L194.232 1.61355L199.777 1.61807ZM225.376 48.1844L211.012 48.1727L211.055 1.62726L226.055 1.63948C230.571 1.64316 234.433 2.57812 237.644 4.44438C240.854 6.29547 243.314 8.95657 245.023 12.4277C246.732 15.8836 247.584 20.0207 247.579 24.8388C247.575 29.6873 246.707 33.8609 244.977 37.3595C243.246 40.8429 240.728 43.5227 237.424 45.3988C234.119 47.2597 230.103 48.1882 225.376 48.1844ZM216.653 43.1773L225.017 43.1841C228.865 43.1872 232.055 42.4474 234.587 40.9646C237.119 39.4818 239.007 37.3697 240.252 34.6283C241.497 31.8869 242.121 28.6223 242.125 24.8344C242.128 21.0768 241.518 17.8415 240.293 15.1284C239.068 12.4001 237.237 10.3077 234.799 8.85115C232.361 7.37946 229.323 6.64214 225.687 6.63918L216.687 6.63185L216.653 43.1773ZM276.309 22.4532L276.304 27.4532L255.94 27.4366L255.945 22.4366L276.309 22.4532ZM325.744 24.9934C325.739 29.9025 324.849 34.1442 323.073 37.7185C321.297 41.2928 318.862 44.0484 315.77 45.9853C312.677 47.9222 309.146 48.889 305.176 48.8858C301.206 48.8825 297.677 47.91 294.588 45.9681C291.499 44.0261 289.07 41.2666 287.3 37.6894C285.531 34.1122 284.648 29.869 284.653 24.96C284.658 20.0509 285.548 15.8092 287.324 12.2349C289.1 8.66054 291.534 5.90495 294.627 3.96807C297.72 2.03119 301.251 1.06437 305.221 1.06761C309.19 1.07084 312.72 2.04341 315.809 3.98533C318.898 5.92724 321.327 8.68679 323.097 12.264C324.866 15.8412 325.748 20.0843 325.744 24.9934ZM320.289 24.989C320.293 20.9587 319.622 17.5566 318.276 14.7828C316.945 12.009 315.137 9.90902 312.85 8.48292C310.579 7.05682 308.034 6.34263 305.216 6.34033C302.398 6.33804 299.844 7.04808 297.555 8.47046C295.281 9.89285 293.468 11.9899 292.117 14.7615C290.781 17.5331 290.111 20.9341 290.108 24.9644C290.104 28.9947 290.767 32.3968 292.098 35.1706C293.444 37.9444 295.252 40.0443 297.524 41.4704C299.81 42.8965 302.363 43.6107 305.181 43.613C307.999 43.6153 310.545 42.9053 312.819 41.4829C315.109 40.0605 316.921 37.9635 318.257 35.1919C319.608 32.4202 320.286 29.0193 320.289 24.989ZM330.755 6.72478L330.76 1.72478L365.669 1.75322L365.664 6.75321L351.028 6.74129L350.989 48.2867L345.353 48.2821L345.392 6.7367L330.755 6.72478Z" fill="url(#paint0_radial_52_656)"/>
<defs>
<radialGradient id="paint0_radial_52_656" cx="0" cy="0" r="1" gradientUnits="userSpaceOnUse" gradientTransform="translate(448.23 83.0847) rotate(179.378) scale(502.411 4092.69)">
<stop stop-color="#687AB3"/>
<stop offset="0.28125" stop-color="#8781AD"/>
<stop offset="0.578125" stop-color="#FE9A9C"/>
<stop offset="0.78125" stop-color="#F0C4B2"/>
<stop offset="1" stop-color="#F5DFBE"/>
</radialGradient>
</defs>
</svg>
