<svg width="121" height="127" viewBox="0 0 121 127" fill="none" xmlns="http://www.w3.org/2000/svg">
<g id="Btn change Login ">
<g id="Switch to Register Btn">
<path d="M60.9222 125.708C28.1494 126.113 1.22778 98.4654 0.790969 63.9548C0.354161 29.4443 26.5676 1.13936 59.3404 0.733989C92.1131 0.328618 119.035 27.9763 119.472 62.4868C119.908 96.9974 93.6949 125.302 60.9222 125.708Z" fill="#8781AD"/>
<path d="M60.9222 125.708C28.1494 126.113 1.22778 98.4654 0.790969 63.9548C0.354161 29.4443 26.5676 1.13936 59.3404 0.733989C92.1131 0.328618 119.035 27.9763 119.472 62.4868C119.908 96.9974 93.6949 125.302 60.9222 125.708Z" fill="#8781AD"/>
</g>
<path id="Swith to Register arrow" d="M96.5518 66.8742C98.094 65.2929 98.0619 62.7604 96.4802 61.2178L70.7041 36.0788C69.1224 34.5362 66.5899 34.5675 65.0477 36.1488C63.5055 37.7301 63.5375 40.2625 65.1193 41.8052L88.0313 64.1509L65.692 87.0564C64.1498 88.6377 64.1819 91.1702 65.7636 92.7128C67.3454 94.2555 69.8778 94.2241 71.42 92.6428L96.5518 66.8742ZM26.658 68.9104L93.7384 68.0807L93.6371 60.0813L26.5568 60.911L26.658 68.9104Z" fill="#3A3A3A" fill-opacity="0.85"/>
</g>
</svg>
